<svg id="レイヤー_1" data-name="レイヤー 1" xmlns="http://www.w3.org/2000/svg" viewBox="0 0 57.5 57.5"><defs><style>.cls-1{fill:none;stroke:#000;stroke-miterlimit:10;stroke-width:3px;}</style></defs><title>logo</title><path d="M25.07,47.33C24.68,45.93,14.61,22,13.46,18.05c.2,2.58.44,27.27.54,28.58s-6.58,1.19-6.49,0,.11-33.05,0-34.45A2,2,0,0,1,9.59,10h5.17c1,0,11.71,25.38,11.71,25.38a2.11,2.11,0,0,0,3.87,0S41,10,42,10H47.2a2.06,2.06,0,0,1,2.08,2.21c-.12,1.41-.12,33.19,0,34.45s-6.57,1.15-6.48,0,.5-27.83.55-28.56c-.65,2.63-11.19,27.82-11.62,29.29C31.44,48.22,25.32,48.22,25.07,47.33Z"/><circle class="cls-1" cx="28.75" cy="28.75" r="27.25"/></svg>